<?xml version="1.0" encoding="UTF-8"?>
<!DOCTYPE svg PUBLIC "-//W3C//DTD SVG 1.1//EN" "http://www.w3.org/Graphics/SVG/1.1/DTD/svg11.dtd">
<!-- Creator: CorelDRAW (OEM Version) -->
<svg xmlns="http://www.w3.org/2000/svg" xml:space="preserve" width="1669px" height="1669px" version="1.1" shape-rendering="geometricPrecision" text-rendering="geometricPrecision" image-rendering="optimizeQuality" fill-rule="evenodd" clip-rule="evenodd"
viewBox="0 0 1629 1629"
 xmlns:xlink="http://www.w3.org/1999/xlink"
 xmlns:xodm="http://www.corel.com/coreldraw/odm/2003">
 <g id="Layer_x0020_1">
  <metadata id="CorelCorpID_0Corel-Layer"/>
  <g id="_1258554474512">
   <path fill="#515151" d="M715.51 578.54c-28.65,-10.76 -367.75,-281.57 -413.56,-304.64 -3.1,35.76 -0.56,81.68 -0.45,118.54 0.09,29.84 -7.32,94.79 8.64,113.95l278.2 213.27c24.51,19.19 45.95,34.51 69.94,52.99 19.85,15.3 48.81,40.8 71.27,52.88 44.42,-25.93 484.51,-356.63 543.63,-402.01 125.54,-96.37 15.11,-240.09 -89.13,-187.28 -39.82,20.17 -446.94,332.14 -468.54,342.3z"/>
   <path fill="#FF2B00" d="M924.36 1059.38c-0.03,-46.23 -8.66,-49.22 20.62,-72.46 16.1,-12.78 27.93,-30.15 48.38,-38.75l1.16 -220.02c-22.58,7.53 -215.62,160.61 -244.12,172.94l1.89 449.64c0.23,74.48 -9.58,77.73 27.58,107.67 21.2,17.08 36.31,31.4 58.5,48.45l31.68 -43.71c41.55,-67.98 54.51,-85.02 54.47,-161.55l-0.16 -242.21z"/>
   <path fill="#FF2B00" d="M1220.35 557.2c-19.17,6.29 -127,91.02 -155.68,110.75 -15.65,10.77 -27.92,13.48 -29.6,36.77 -3.3,45.7 -0.21,271.5 -0.21,333.6 0.01,79.26 -9.79,77.76 28.84,104.61 29.76,20.7 133.01,100.26 158.18,109.45l-1.53 -695.18z"/>
   <path fill="#515151" d="M302.5 687.3l-0.85 361.55c0.03,63.31 5.76,55.63 78.48,107.23 23.77,16.86 88.32,66.44 110.52,76.54l-0.63 -517.5 -138.57 -106.04c-14.34,-11.33 -32.17,-27.79 -50.35,-35.3l1.4 113.52z"/>
   <path fill="#515151" d="M534.23 751.74c-6.08,71.15 -2.23,320.09 -1.3,405.93 0.85,78.43 -9,101.1 26.62,127.88 27.03,20.33 126.75,99.77 147.91,104.2l0.69 -502.37c-5.8,-13.8 -70.74,-59.32 -86.24,-71.4 -22.78,-17.76 -62.1,-51.39 -87.68,-64.24z"/>
   <path fill="#4E4F50" d="M631.64 257.78c-132.35,20.28 -97.15,209.7 27.37,187.29 45,-8.1 86.2,-51.67 78.67,-106.54 -6.48,-47.18 -51.78,-89.06 -106.04,-80.75z"/>
   <path fill="#525252" d="M917.99 123.66c-128.84,21.55 -95.16,202.4 24.27,186.4 124.43,-16.67 96.58,-206.62 -24.27,-186.4z"/>
  </g>
  <rect fill="none" stroke="#FF2B00" stroke-width="17.29" stroke-miterlimit="22.9256" x="8.64" y="8.65" width="1611.71" height="1611.71" rx="210.18" ry="210.18"/>
 </g>
</svg>
